<svg width="13" height="14" viewBox="0 0 13 14" fill="none" xmlns="http://www.w3.org/2000/svg">
<path fill-rule="evenodd" clip-rule="evenodd" d="M7.79274 8.26377C6.36081 9.69569 4.03921 9.69569 2.60729 8.26377C1.17537 6.83185 1.17537 4.51024 2.60729 3.07832C4.03921 1.6464 6.36081 1.6464 7.79274 3.07832C9.22466 4.51024 9.22466 6.83185 7.79274 8.26377ZM8.23312 9.64673C6.27289 11.1461 3.45731 10.9994 1.66448 9.20658C-0.288143 7.25396 -0.288143 4.08813 1.66448 2.13551C3.6171 0.182888 6.78292 0.182888 8.73555 2.13551C10.5283 3.92826 10.6751 6.74368 9.1759 8.70389L12.7426 12.2706L11.7998 13.2134L8.23312 9.64673Z" fill="#A0A0A0"/>
</svg>
